<?xml version="1.0" standalone="no"?>
<!DOCTYPE svg PUBLIC "-//W3C//DTD SVG 20010904//EN"
 "http://www.w3.org/TR/2001/REC-SVG-20010904/DTD/svg10.dtd">
<svg version="1.0" xmlns="http://www.w3.org/2000/svg"
 width="260.000000pt" height="260.000000pt" viewBox="0 0 260.000000 260.000000"
 preserveAspectRatio="xMidYMid meet">
<metadata>
Created by potrace 1.11, written by Peter Selinger 2001-2013
</metadata>
<g transform="translate(0.000000,260.000000) scale(0.100000,-0.100000)"
fill="#000000" stroke="none">
<path d="M1136 2459 c-250 -37 -483 -155 -666 -340 -497 -502 -437 -1329 128
-1754 148 -111 326 -189 502 -221 167 -30 408 -12 568 42 179 60 315 146 458
288 222 221 330 467 341 773 6 166 -5 261 -49 400 -58 187 -146 331 -288 474
-188 190 -410 301 -675 339 -83 11 -236 11 -319 -1z m407 -79 c253 -56 493
-214 650 -425 360 -485 258 -1178 -228 -1544 -95 -72 -269 -155 -390 -188 -88
-23 -120 -26 -265 -27 -166 -1 -200 3 -337 45 -276 82 -526 295 -658 559 -86
172 -118 306 -118 495 -1 287 99 542 297 762 112 124 347 267 506 308 188 49
371 54 543 15z"/>
<path d="M1656 2059 c-138 -19 -247 -56 -302 -103 -64 -53 -214 -298 -214
-348 0 -39 28 -49 121 -46 l90 3 51 80 c85 131 113 160 191 201 40 21 94 50
121 66 90 53 57 22 -54 -52 -61 -39 -128 -92 -150 -117 -107 -122 -250 -449
-250 -572 0 -26 -3 -51 -7 -54 -3 -4 -20 12 -36 36 -17 23 -55 75 -86 116 -48
64 -53 74 -38 83 26 14 21 43 -19 111 -89 152 -133 176 -331 185 -162 6 -167
4 -111 -56 66 -70 94 -125 122 -241 29 -120 46 -151 81 -151 37 0 105 65 105
101 0 19 5 29 15 29 20 0 20 2 -19 62 -38 59 -64 86 -116 117 -44 26 -32 27
18 2 48 -24 85 -62 134 -135 21 -32 65 -90 97 -130 88 -108 129 -173 146 -229
38 -126 27 -381 -25 -572 -16 -60 -30 -113 -30 -117 0 -5 17 -8 38 -8 l39 0
16 83 c40 199 67 475 67 685 0 104 4 135 24 195 36 107 84 208 85 178 1 -33
41 -83 97 -120 112 -74 157 -25 215 233 16 72 36 149 45 170 24 63 101 175
166 242 42 44 56 64 47 70 -19 12 -264 14 -343 3z"/>
</g>
</svg>
